<svg xmlns="http://www.w3.org/2000/svg" viewBox="0 0 750 500" width="750" height="500">
  <defs>
    <radialGradient id="ra8" cx="50%" cy="50%" r="60%">
      <stop offset="0%" stop-color="#650C12" stop-opacity="0.5"/>
      <stop offset="100%" stop-color="#050505" stop-opacity="0"/>
    </radialGradient>
    <filter id="blur6"><feGaussianBlur stdDeviation="28"/></filter>
  </defs>
  <rect width="750" height="500" fill="#050505"/>
  <ellipse cx="375" cy="250" rx="300" ry="200" fill="url(#ra8)" filter="url(#blur6)"/>
  <g stroke="rgba(255,255,255,0.06)" stroke-width="1">
    <line x1="0" y1="125" x2="750" y2="125"/>
    <line x1="0" y1="250" x2="750" y2="250"/>
    <line x1="0" y1="375" x2="750" y2="375"/>
    <line x1="187" y1="0" x2="187" y2="500"/>
    <line x1="562" y1="0" x2="562" y2="500"/>
  </g>
  <!-- Strait of Hormuz representation -->
  <g transform="translate(375,220)">
    <path d="M-100,-60 Q0,-80 100,-60 L80,60 Q0,80 -80,60 Z" fill="#100506" stroke="#650C12" stroke-width="1" stroke-opacity="0.5"/>
    <line x1="-80" y1="0" x2="80" y2="0" stroke="#B71019" stroke-width="1" stroke-opacity="0.4" stroke-dasharray="6,4"/>
    <text x="0" y="-10" text-anchor="middle" fill="#E01B24" font-family="Noto Sans SC, sans-serif" font-size="11" font-weight="700" letter-spacing="2">(ywá</text>
    <text x="0" y="15" text-anchor="middle" fill="#AFA5A5" font-family="Noto Sans SC, sans-serif" font-size="10" font-weight="300">STRAIT OF HORMUZ</text>
    <!-- Ship markers -->
    <circle cx="-40" cy="-10" r="6" fill="#650C12" fill-opacity="0.6"/>
    <circle cx="30" cy="15" r="6" fill="#650C12" fill-opacity="0.4"/>
    <circle cx="-20" cy="25" r="4" fill="#650C12" fill-opacity="0.3"/>
  </g>
  <text x="375" y="350" text-anchor="middle" fill="#F2EEEE" font-family="Noto Sans SC, sans-serif" font-size="13" font-weight="500" letter-spacing="2">33å 
£§6wá</text>
  <text x="375" y="460" text-anchor="middle" fill="rgba(175,165,165,0.4)" font-family="Noto Sans SC, sans-serif" font-size="10" letter-spacing="1">þG…eE</text>
</svg>
